<?xml version="1.0" encoding="UTF-8"?>
<svg version="1.1" viewBox="0 0 1200 1200" width="300" height="300" xmlns="http://www.w3.org/2000/svg">
<path transform="translate(0)" d="m0 0h1200v1200h-1200z" fill="#F4E6CB"/>
<path transform="translate(221,443)" d="m0 0 2 1-7 6-8 10-8 14-4 8-4 12-2 11v15l3 16 7 19 9 14 9 10 10 8 14 8 14 5h6l4-5 4-12-6-1-11-5-13-4 2-4 10-9 6-4 16 1 17 2 6-1h6l10-8 5-7h1l-1 10-4 9-7 8-8 6-7 4-1 5 2 14 1 2 15-3 19-10 9-7 11-11 10-15 6-15 3-13v-23l-4-18-7-16-7-11-11-12h3l16 10 14 12 10 11 10 16 8 16 4 14v30l-4 15-7 14-8 11-10 10-14 9-14 7-20 7 12-2 17-5 19-9 12-8 11-9 7-8h1l-1 10-5 14-6 11-10 13-7 7-10 7-13 5-8 2-18 1-7 1 24 5 7 1v4l-19 10-14 5h-10l-12-5-5-5-3-1 13 29 1 5v9l-3 10-11 13-7 11-2 4h-3l-2-8-3-4v-2h-2l-8-10-4-8-1-4v-10l3-10 10-23-5 1-9 6-7 2-11-1-16-6-14-9-1-3 15-3 15-4 6-1v-2l-11 2h-17l-10-2-16-8-10-8-7-7-8-13-8-20-1-10 5 5 11 10 14 9 14 7 19 6 13 3h4l-17-5-18-8-13-8-10-9-8-11-8-16-4-12-2-14v-14l4-17 7-16 8-14 9-11 12-12 17-12z" fill="#AF9779"/>
<path transform="translate(518,520)" d="m0 0h17l9 3 6 4 7 8 4 8 2 11-1 12-3 8-6 8-8 7-13 4h-13l-14-4-8-8-6-12-1-3v-18l4-11 6-8 9-6z" fill="#1F1E21"/>
<path transform="translate(672,520)" d="m0 0h17l12 5 7 6 5 8 3 12v10l-3 11-5 9-8 7-9 4-5 1h-14l-10-3-8-5-6-7-4-10-1-7v-10l3-11 5-8 9-8 7-3z" fill="#1F1E21"/>
<path transform="translate(903,521)" d="m0 0h19l8 16 11 23v3h2l2-5 16-32 1-4h21l-3 6v25l3 29 3 9-3 1h-16l-1-3 1-46h-2l-3 9-13 23-7 13-2-2-3-8-15-25-5-9v44l1 4h-17l1-7 2-21 1-19v-16l-3-7z" fill="#1F1E21"/>
<path transform="translate(757,521)" d="m0 0h15l4 3 8 16 9 15 8 15 1 5 1-1-1-6-2-39-2-7 4-1h15v4l-2 8v35l1 19 1 4-1 1h-18l-10-19-13-22-4-7-2-4 1 11 1 32 2 8-7 1h-10l-3-2 2-3 1-7v-53l-3-3v-2z" fill="#1F1E21"/>
<path transform="translate(848,521)" d="m0 0h22l1 4 1 7 6 19 9 26 5 10 3 3v2h-20l-3-15-27-1-1 15-4 1h-14l1-5 3-4 8-21 9-27 1-10-1-3z" fill="#1F1E21"/>
<path transform="translate(603,520)" d="m0 0h14l10 2 3 11v5l-9-5-9-2-10 1-9 6-4 6-2 7v10l3 10 5 8 6 3h15l3-2 1-16h-7l-5 3-4-1 1-10 7-2h16l4-1 1 4-1 27-7 6-7 2-11 1-13-2-9-5-8-9-4-8-1-4v-17l5-12 7-8 9-5z" fill="#1F1E21"/>
<path transform="translate(523,529)" d="m0 0h7l8 3 6 7 3 6 1 5v14l-4 10-5 6-8 4h-10l-8-4-6-7-3-8v-18l5-10 8-6z" fill="#F2E4C9"/>
<path transform="translate(673,530)" d="m0 0h12l8 4 6 8 2 6v15l-3 9-3 5-9 6-10 1-9-3-7-8-3-9v-13l3-10 7-8z" fill="#F2E4C9"/>
<path transform="translate(1029,521)" d="m0 0h15v15l-3-1-2-3-23-1 1 18h22l1 2-1 11-2 1v-3l-21-1v23l25-1 1-4 3-3h2l-1 12-2 5-44 1-1-2 2-5 1-10v-47l-4-4v-2z" fill="#1F1E21"/>
<path transform="translate(453,521)" d="m0 0 7 1-3 6-1 28v26l19-2 5-2 4-3 3 1-2 7-1 9-46-1 2-5 1-3v-54l-3-7z" fill="#1F1E21"/>
<path transform="translate(858,536)" d="m0 0 2 2 9 26v3h-20l3-10z" fill="#F0E1C6"/>
<path transform="translate(618,628)" d="m0 0h11l3 1 1 10-1 11-4 5-4 1h-9l-2-2v-3h10l3-1 1-6 1-12-11 1v10l9 2-1 2-5 1-5-2-3-3v-10l1-3z" fill="#1F1E21"/>
<path transform="translate(577,628)" d="m0 0h9l4 2 1 2 1 15-4 2-12-1-2-2v-6l4-4 10-1-3-3h-10v-3z" fill="#1F1E21"/>
<path transform="translate(753,628)" d="m0 0 8 1 4 5-1 6-10-1-4 1 1 3 9 1 3-1-1 4-1 1h-11l-4-3-1-4v-7l2-4z" fill="#1F1E21"/>
<path transform="translate(853,628)" d="m0 0h7l5 5 1 6-1 2-5-2h-7l1 5h6l4-2v5l-1 1h-11l-5-5v-9l4-5z" fill="#1F1E21"/>
<path transform="translate(716,628)" d="m0 0 7 1 2 8v12h-4l-1-13-1-3h-8l-1 3v12l-5-1v-17l1-1z" fill="#1F1E21"/>
<path transform="translate(536,622)" d="m0 0h17l3 1v3l-8 1v21l-5 1v-23l-10-1v-2z" fill="#1F1E21"/>
<path transform="translate(886,629)" d="m0 0 5 1 2 5 5-6 5 1-6 7 2 4 4 5-1 3-5-2-2-5-3 1-3 5-5 1 2-5 4-7-1-3-4-2z" fill="#1F1E21"/>
<path transform="translate(808,622)" d="m0 0h17l5 1-1 3h-7l-1 1-1 22h-4v-24l-9 1z" fill="#1F1E21"/>
<path transform="translate(923,625)" d="m0 0 5 1 6 3v2h-6v8l1 5 6 2v2l-6 1-6-3-1-14-1-5z" fill="#1F1E21"/>
<path transform="translate(622,631)" d="m0 0 6 1v12l-2 2-9-3-1-2v-8z" fill="#EBDCC0"/>
<path transform="translate(655,620)" d="m0 0 3 1v27l-4 1v-28z" fill="#1F1E21"/>
<path transform="translate(680,628)" d="m0 0 4 1v19l-4 1-1-3z" fill="#1F1E21"/>
<path transform="translate(853,638)" d="m0 0h7l5 4-5 3h-6l-2-2z" fill="#E7D7BC"/>
<path transform="translate(578,639)" d="m0 0h9l1 1v5l-3 1-7-2-1-4z" fill="#E7D7BB"/>
<path transform="translate(754,631)" d="m0 0 6 1 3 3-6 1h-9l1-3z" fill="#E0CFB3"/>
<path transform="translate(855,631)" d="m0 0h5l2 4-5 2-5-1 1-4z" fill="#E4D3B7"/>
</svg>
