<svg width="1348" height="1118" viewBox="0 0 1348 1118" fill="none" xmlns="http://www.w3.org/2000/svg">
<path d="M1016.06 60.12C967.671 32.41 914.651 11.89 858.431 0L266.281 269.66C239.191 318.37 219.331 371.65 208.141 428.04L1016.06 60.12Z" fill="#19191D"/>
<path d="M973.991 118.18L123.861 505.32C121.291 526.83 119.961 548.72 119.961 570.92C119.961 593.12 121.321 615.46 123.941 637.19L1073.36 204.83C1043.88 172.13 1010.52 143 973.991 118.18Z" fill="#19191D"/>
<path d="M1347.58 510.84C1347.58 494.04 1346.82 477.42 1345.34 461.01L405.422 889.04C436.312 921.31 471.112 949.79 509.072 973.75L1341.18 594.81C1345.4 567.44 1347.59 539.39 1347.59 510.84H1347.58Z" fill="#19191D"/>
<path d="M717.251 26.2202C700.681 24.7102 683.911 23.9302 666.951 23.9302C484.181 23.9302 322.361 113.57 223.031 251.29L717.251 26.2202Z" fill="#19191D"/>
<path d="M1131.44 859.93C1162.32 810.4 1185.5 755.57 1199.3 697.12L412.68 1055.34C464.17 1082.42 520.5 1101.53 580.04 1111.03L1131.44 859.92V859.93Z" fill="#19191D"/>
<path d="M1031.28 394.46C1013.74 357.76 992.24 323.31 967.32 291.68L0 732.19C7.62 772.49 19.66 811.23 35.59 847.89L1031.27 394.46H1031.28Z" fill="#19191D"/>
<path d="M1090.5 917.06L650.031 1117.65C655.651 1117.82 661.291 1117.92 666.951 1117.92C837.711 1117.92 990.201 1039.66 1090.51 917.06H1090.5Z" fill="#19191D"/>
<path d="M1207.17 484.67C1200.72 443.94 1189.77 404.7 1174.85 367.48L180.078 820.49C198.728 856.8 221.328 890.75 247.298 921.78L1207.16 484.66L1207.17 484.67Z" fill="#19191D"/>
</svg>
